<svg width="162" height="85" viewBox="0 0 162 85" fill="none" xmlns="http://www.w3.org/2000/svg">
<path fill-rule="evenodd" clip-rule="evenodd" d="M20.2982 51.9205C26.8227 51.9205 31.8247 50.4642 35.377 47.4786C38.9292 44.4929 40.7414 40.5607 40.7414 35.8274C41.1039 30.0746 37.8417 26.4336 34.8695 24.249C33.8546 23.4481 32.5497 22.8655 30.9548 22.3557C29.2875 21.7732 27.9826 21.3362 27.0402 21.1178C26.0978 20.8265 24.7929 20.4624 22.9805 20.0983C19.8633 19.4429 18.7034 19.1517 16.7461 18.3507C14.7887 17.4768 14.0639 16.3845 14.0639 14.9281C14.0639 13.1076 15.8037 11.6512 19.0659 11.6512C24.068 11.6512 25.4454 14.127 25.6628 17.4039H39.5816C38.7842 6.55374 31.4623 0.145643 19.2833 0.145643C13.4113 0.145643 8.77173 1.60207 5.21957 4.5877C1.73985 7.57332 0 11.5056 0 16.3845C0 20.9951 1.58357 24.67 4.71272 27.3721C5.18923 27.2893 5.67902 27.2458 6.17912 27.2458C9.39001 27.2458 12.1867 29.025 13.6467 31.6552C15.2335 32.1382 17.0398 32.6308 19.0659 33.1331C24.068 34.2982 26.3878 35.3177 26.3878 37.3566C26.3878 39.614 24.5029 40.7063 20.6607 40.7063C17.6165 40.7063 15.5345 39.8089 14.4379 38.038C13.4676 41.708 10.138 44.4125 6.17912 44.4125C4.48403 44.4125 2.90422 43.9167 1.57557 43.0616C4.67202 48.8318 10.9664 51.9206 20.2983 51.9206L20.2982 51.9205ZM159.486 33.7884V49.4447H148.032V37.1755C142.3 61.7695 107.073 53.1699 107.073 26.1423C107.073 19.0788 109.611 12.9619 114.685 7.79179C119.76 2.62159 126.284 0 134.331 0C139.551 0 144.045 1.09232 147.742 3.20408C151.512 5.31591 154.339 7.86461 156.152 10.923L144.915 19.006C141.943 15.1466 138.318 13.2532 133.968 13.2532C130.416 13.2532 127.517 14.4911 125.197 16.967C122.877 19.37 121.717 22.5013 121.717 26.3608C121.717 30.1474 122.877 33.2058 125.269 35.609C127.662 38.0119 130.561 39.1772 134.041 39.1772C138.463 39.1772 141.725 37.3566 143.828 33.7885H132.446V22.283H148.032H159.486V33.7885V33.7884ZM70.1015 50.9739H77.5683L89.5298 22.8654V50.9739H103.086V1.09232H84.6728L73.9437 26.7977L63.1421 1.09232H44.7287V50.9739H58.1401V22.8654L70.1015 50.9739H70.1015Z" fill="white"/>
<path d="M6.8807 62.7137H2.61403V73.2627H6.86599C8.67565 73.2627 9.95565 72.4682 10.6913 70.8645C11.118 69.9523 11.3239 68.9519 11.3239 67.819C11.3239 66.3771 10.9708 65.1854 10.2646 64.2585C9.45542 63.2286 8.33726 62.7137 6.8807 62.7137ZM6.60116 72.0415H4.04116V63.9348H6.58645C7.73404 63.9348 8.57266 64.3026 9.0876 65.0236C9.61726 65.7445 9.86737 66.7597 9.86737 68.0691C9.86737 68.4075 9.83795 68.7753 9.76439 69.1725C9.64668 69.8493 9.42599 70.3937 9.14645 70.8056C8.79335 71.35 8.33726 71.7031 7.79289 71.8944C7.48392 71.9974 7.07197 72.0415 6.60116 72.0415ZM14.3059 64.1702V62.7137H12.9817V64.1702H14.3059ZM14.3059 73.2627V65.5974H12.9817V73.2627H14.3059ZM20.5393 65.8769C20.098 65.5827 19.5683 65.4355 18.9651 65.4355C18.0676 65.4355 17.3173 65.7886 16.6846 66.5243C16.052 67.2452 15.743 68.2456 15.743 69.5404C15.743 70.8939 16.052 71.8797 16.6846 72.4682C17.3026 73.0567 18.0382 73.3509 18.8621 73.3509C19.4653 73.3509 19.9361 73.2627 20.3039 73.0714C20.6718 72.8801 20.9807 72.5859 21.2456 72.1886C21.2603 73.248 21.172 73.9836 20.9954 74.3955C20.6865 75.1017 20.0391 75.4401 19.0387 75.4401C18.4207 75.4401 17.9646 75.3077 17.6704 75.0135C17.4791 74.8222 17.3614 74.5574 17.2878 74.219H15.9784C16.0373 75.0135 16.3609 75.5873 16.92 75.9698C17.4938 76.3229 18.1853 76.5142 19.0092 76.5142C20.5099 76.5142 21.5104 75.9992 22.0547 74.9546C22.349 74.3808 22.4814 73.6158 22.4814 72.6447V65.6415H21.2897V66.6125C21.0396 66.2889 20.7895 66.0387 20.5393 65.8769ZM20.7012 67.2599C21.0984 67.7307 21.2897 68.4222 21.2897 69.3785C21.2897 70.0112 21.1867 70.5702 20.9807 71.0411C20.5982 71.8797 19.9361 72.3063 19.0092 72.3063C18.4207 72.3063 17.9499 72.0709 17.5968 71.6148C17.2437 71.1588 17.0672 70.5114 17.0672 69.6433C17.0672 68.9077 17.1554 68.3045 17.332 67.8484C17.6704 66.9951 18.2883 66.5684 19.2005 66.5684C19.8184 66.5684 20.3039 66.8038 20.7012 67.2599ZM25.7427 64.1702V62.7137H24.4185V64.1702H25.7427ZM25.7427 73.2627V65.5974H24.4185V73.2627H25.7427ZM29.2543 65.5679V63.4199H27.9449V65.5679H26.9003V66.6273H27.9449V71.7178C27.9449 72.2181 28.0479 72.6153 28.2686 72.9243C28.4892 73.2332 28.8865 73.3804 29.4897 73.3804C29.681 73.3804 29.8575 73.3804 30.0194 73.3509C30.1812 73.3362 30.3283 73.3068 30.4755 73.2627V72.2475C30.3872 72.2475 30.2989 72.2622 30.2253 72.2622H30.0341C29.7987 72.2622 29.6221 72.2328 29.5191 72.1886C29.3426 72.0857 29.2543 71.9091 29.2543 71.6443V66.6273H30.4755V65.5679H29.2543ZM35.9091 68.5987L33.8494 68.8636C33.1137 68.9519 32.5399 69.1873 32.0838 69.5845C31.6425 69.9817 31.4218 70.5261 31.4218 71.247C31.4218 71.8944 31.6572 72.4388 32.0986 72.8654C32.5547 73.3068 33.1432 73.5275 33.8494 73.5275C34.4526 73.5275 34.9822 73.3951 35.4825 73.145C35.9827 72.8948 36.3505 72.5859 36.6153 72.2475C36.6595 72.5565 36.733 72.7919 36.836 72.9537C37.042 73.2627 37.3657 73.4245 37.8071 73.4245C37.9836 73.4245 38.1308 73.4245 38.2337 73.4098C38.3514 73.3951 38.4986 73.3509 38.7045 73.2921V72.3505C38.6163 72.3505 38.5427 72.3652 38.4691 72.3652C38.3956 72.3799 38.3367 72.3799 38.2779 72.3799C38.1013 72.3799 37.9836 72.3505 37.9248 72.2622C37.8806 72.1886 37.8512 72.0709 37.8512 71.9385V67.51C37.8512 66.7891 37.5717 66.2447 36.9979 65.9063C36.4388 65.5532 35.7032 65.3767 34.8057 65.3767C34.0112 65.3767 33.3344 65.5679 32.7459 65.9358C32.1427 66.3036 31.8337 66.9656 31.819 67.922H33.0255C33.0696 67.5247 33.1726 67.2158 33.3344 67.0245C33.614 66.6567 34.0995 66.4801 34.7763 66.4801C35.3501 66.4801 35.8062 66.5684 36.1151 66.7744C36.4241 66.9656 36.5859 67.2893 36.5859 67.7307C36.5859 67.9514 36.5565 68.1132 36.4976 68.2309C36.3947 68.4369 36.2034 68.5693 35.9091 68.5987ZM33.1873 72.1004C32.9078 71.8797 32.7753 71.5854 32.7753 71.2176C32.7753 70.7174 32.9813 70.3643 33.3638 70.1436C33.5993 69.9965 33.9524 69.9082 34.4232 69.8493L35.2029 69.7463C35.4383 69.7169 35.6884 69.6581 35.9386 69.5992C36.1887 69.5404 36.3947 69.4521 36.5565 69.3491V70.3937C36.5565 71.1882 36.1887 71.7473 35.4678 72.1004C35.0558 72.3211 34.5997 72.424 34.1583 72.424C33.7758 72.424 33.4521 72.3211 33.1873 72.1004ZM41.289 73.2627V62.7137H39.9943V73.2627H41.289ZM48.6307 64.1702V62.7137H47.3065V64.1702H48.6307ZM48.6307 73.2627V65.5974H47.3065V73.2627H48.6307ZM51.8039 66.6567V65.5679H50.568V73.2627H51.8627V69.2314C51.8627 68.7312 51.9069 68.3486 51.9657 68.0691C52.0393 67.8043 52.1717 67.5394 52.3777 67.2893C52.6572 66.9656 52.9662 66.7597 53.3193 66.6567C53.5105 66.5831 53.7607 66.5537 54.0696 66.5537C54.6728 66.5537 55.0995 66.8038 55.3202 67.2746C55.4526 67.5689 55.5262 67.9514 55.5262 68.4075V73.2627H56.8503V68.3339C56.8503 67.5541 56.7326 66.9509 56.5266 66.539C56.1441 65.7739 55.4085 65.3914 54.3197 65.3914C53.8195 65.3914 53.3634 65.4944 52.9662 65.6856C52.5542 65.8916 52.1717 66.2153 51.8039 66.6567ZM59.9792 66.6567V65.5679H58.7433V73.2627H60.038V69.2314C60.038 68.7312 60.0822 68.3486 60.141 68.0691C60.2146 67.8043 60.347 67.5394 60.553 67.2893C60.8325 66.9656 61.1415 66.7597 61.4946 66.6567C61.6858 66.5831 61.936 66.5537 62.2449 66.5537C62.8481 66.5537 63.2748 66.8038 63.4955 67.2746C63.6279 67.5689 63.7015 67.9514 63.7015 68.4075V73.2627H65.0256V68.3339C65.0256 67.5541 64.9079 66.9509 64.7019 66.539C64.3194 65.7739 63.5838 65.3914 62.495 65.3914C61.9948 65.3914 61.5387 65.4944 61.1415 65.6856C60.7295 65.8916 60.347 66.2153 59.9792 66.6567ZM72.5389 66.333C71.8621 65.6709 71.0235 65.3472 70.023 65.3472C68.9195 65.3472 68.0368 65.7298 67.3894 66.4948C66.7274 67.2599 66.4037 68.2898 66.4037 69.5845C66.4037 70.7909 66.7126 71.7473 67.3306 72.4682C67.9632 73.1891 68.8018 73.5422 69.8611 73.5422C71.1264 73.5422 72.068 73.145 72.6713 72.3358C73.2745 71.5119 73.5687 70.4967 73.5687 69.2608C73.5687 67.9661 73.2304 66.9951 72.5389 66.333ZM71.7444 71.453C71.4207 72.1004 70.8322 72.424 69.9789 72.424C69.1991 72.424 68.6253 72.1592 68.2722 71.6148C67.9044 71.0705 67.7278 70.379 67.7278 69.5698C67.7278 68.7017 67.9044 67.9808 68.2722 67.3776C68.6253 66.7744 69.1991 66.4801 69.9936 66.4801C70.8763 66.4801 71.509 66.8332 71.8768 67.5394C72.1122 67.9955 72.2152 68.5693 72.2152 69.2902C72.2152 70.0847 72.068 70.8056 71.7444 71.453ZM79.9344 65.5679L77.7863 71.8355L75.7266 65.5679H74.2259L77.0654 73.2627H78.4484L81.3468 65.5679H79.9344ZM86.5845 68.5987L84.5247 68.8636C83.7891 68.9519 83.2153 69.1873 82.7592 69.5845C82.3178 69.9817 82.0971 70.5261 82.0971 71.247C82.0971 71.8944 82.3325 72.4388 82.7739 72.8654C83.23 73.3068 83.8185 73.5275 84.5247 73.5275C85.128 73.5275 85.6576 73.3951 86.1578 73.145C86.6581 72.8948 87.0259 72.5859 87.2907 72.2475C87.3349 72.5565 87.4084 72.7919 87.5114 72.9537C87.7174 73.2627 88.0411 73.4245 88.4824 73.4245C88.659 73.4245 88.8061 73.4245 88.9091 73.4098C89.0268 73.3951 89.1739 73.3509 89.3799 73.2921V72.3505C89.2916 72.3505 89.2181 72.3652 89.1445 72.3652C89.0709 72.3799 89.0121 72.3799 88.9532 72.3799C88.7767 72.3799 88.659 72.3505 88.6001 72.2622C88.556 72.1886 88.5266 72.0709 88.5266 71.9385V67.51C88.5266 66.7891 88.247 66.2447 87.6732 65.9063C87.1142 65.5532 86.3785 65.3767 85.4811 65.3767C84.6866 65.3767 84.0098 65.5679 83.4213 65.9358C82.8181 66.3036 82.5091 66.9656 82.4944 67.922H83.7008C83.745 67.5247 83.848 67.2158 84.0098 67.0245C84.2893 66.6567 84.7748 66.4801 85.4516 66.4801C86.0254 66.4801 86.4815 66.5684 86.7905 66.7744C87.0995 66.9656 87.2613 67.2893 87.2613 67.7307C87.2613 67.9514 87.2319 68.1132 87.173 68.2309C87.07 68.4369 86.8788 68.5693 86.5845 68.5987ZM83.8627 72.1004C83.5831 71.8797 83.4507 71.5854 83.4507 71.2176C83.4507 70.7174 83.6567 70.3643 84.0392 70.1436C84.2746 69.9965 84.6277 69.9082 85.0985 69.8493L85.8783 69.7463C86.1137 69.7169 86.3638 69.6581 86.6139 69.5992C86.864 69.5404 87.07 69.4521 87.2319 69.3491V70.3937C87.2319 71.1882 86.864 71.7473 86.1431 72.1004C85.7312 72.3211 85.2751 72.424 84.8337 72.424C84.4512 72.424 84.1275 72.3211 83.8627 72.1004ZM92.1998 65.5679V63.4199H90.8904V65.5679H89.8458V66.6273H90.8904V71.7178C90.8904 72.2181 90.9934 72.6153 91.2141 72.9243C91.4347 73.2332 91.832 73.3804 92.4352 73.3804C92.6265 73.3804 92.803 73.3804 92.9649 73.3509C93.1267 73.3362 93.2738 73.3068 93.421 73.2627V72.2475C93.3327 72.2475 93.2444 72.2622 93.1708 72.2622H92.9796C92.7442 72.2622 92.5676 72.2328 92.4646 72.1886C92.2881 72.0857 92.1998 71.9091 92.1998 71.6443V66.6273H93.421V65.5679H92.1998ZM96.0445 64.1702V62.7137H94.7204V64.1702H96.0445ZM96.0445 73.2627V65.5974H94.7204V73.2627H96.0445ZM103.602 66.333C102.925 65.6709 102.087 65.3472 101.086 65.3472C99.9828 65.3472 99.1 65.7298 98.4527 66.4948C97.7906 67.2599 97.4669 68.2898 97.4669 69.5845C97.4669 70.7909 97.7759 71.7473 98.3938 72.4682C99.0265 73.1891 99.8651 73.5422 100.924 73.5422C102.19 73.5422 103.131 73.145 103.735 72.3358C104.338 71.5119 104.632 70.4967 104.632 69.2608C104.632 67.9661 104.294 66.9951 103.602 66.333ZM102.808 71.453C102.484 72.1004 101.895 72.424 101.042 72.424C100.262 72.424 99.6886 72.1592 99.3355 71.6148C98.9676 71.0705 98.7911 70.379 98.7911 69.5698C98.7911 68.7017 98.9676 67.9808 99.3355 67.3776C99.6886 66.7744 100.262 66.4801 101.057 66.4801C101.94 66.4801 102.572 66.8332 102.94 67.5394C103.175 67.9955 103.278 68.5693 103.278 69.2902C103.278 70.0847 103.131 70.8056 102.808 71.453ZM107.393 66.6567V65.5679H106.157V73.2627H107.452V69.2314C107.452 68.7312 107.496 68.3486 107.555 68.0691C107.628 67.8043 107.761 67.5394 107.967 67.2893C108.246 66.9656 108.555 66.7597 108.908 66.6567C109.1 66.5831 109.35 66.5537 109.659 66.5537C110.262 66.5537 110.689 66.8038 110.909 67.2746C111.042 67.5689 111.115 67.9514 111.115 68.4075V73.2627H112.439V68.3339C112.439 67.5541 112.322 66.9509 112.116 66.539C111.733 65.7739 110.998 65.3914 109.909 65.3914C109.409 65.3914 108.953 65.4944 108.555 65.6856C108.143 65.8916 107.761 66.2153 107.393 66.6567ZM119.207 70.8498H117.957C118.001 71.6148 118.251 72.2622 118.722 72.7771C119.207 73.2921 120.016 73.5569 121.164 73.5569C122.223 73.5569 123.003 73.3068 123.533 72.8066C124.048 72.3211 124.312 71.7178 124.312 71.0411C124.312 70.3201 124.062 69.8052 123.562 69.4815C123.238 69.2755 122.62 69.0401 121.694 68.8194L120.84 68.6135C120.458 68.5252 120.178 68.4222 119.987 68.3045C119.648 68.0985 119.487 67.8337 119.487 67.4953C119.487 67.1863 119.619 66.9362 119.869 66.7597C120.119 66.5684 120.487 66.4801 120.973 66.4801C121.708 66.4801 122.223 66.642 122.517 66.9804C122.694 67.2158 122.812 67.4806 122.826 67.7748H124.048C124.062 67.2893 123.915 66.8185 123.591 66.3918C123.077 65.7004 122.238 65.362 121.076 65.362C120.193 65.362 119.487 65.5974 118.972 66.0387C118.442 66.4948 118.177 67.0833 118.177 67.8043C118.177 68.4222 118.457 68.9077 119.016 69.2608C119.325 69.4668 119.81 69.6433 120.458 69.8052L121.488 70.07C122.047 70.2024 122.4 70.3201 122.591 70.4378C122.885 70.5997 123.032 70.8498 123.032 71.1882C123.032 71.6296 122.856 71.9385 122.488 72.1445C122.12 72.3505 121.708 72.4682 121.223 72.4682C120.414 72.4682 119.854 72.2622 119.531 71.8355C119.34 71.6148 119.237 71.2765 119.207 70.8498ZM127.358 65.5679V63.4199H126.048V65.5679H125.004V66.6273H126.048V71.7178C126.048 72.2181 126.151 72.6153 126.372 72.9243C126.593 73.2332 126.99 73.3804 127.593 73.3804C127.785 73.3804 127.961 73.3804 128.123 73.3509C128.285 73.3362 128.432 73.3068 128.579 73.2627V72.2475C128.491 72.2475 128.403 72.2622 128.329 72.2622H128.138C127.902 72.2622 127.726 72.2328 127.623 72.1886C127.446 72.0857 127.358 71.9091 127.358 71.6443V66.6273H128.579V65.5679H127.358ZM131.173 70.6732V65.5679H129.849V70.8056C129.849 71.453 129.967 71.9827 130.173 72.3652C130.57 73.1008 131.32 73.4686 132.424 73.4686C133.13 73.4686 133.718 73.2627 134.219 72.8654C134.469 72.6594 134.675 72.424 134.837 72.1298L134.822 73.2627H136.043V65.5679H134.763V69.3491C134.763 70.0994 134.675 70.6879 134.484 71.1146C134.16 71.9238 133.542 72.3358 132.644 72.3358C132.027 72.3358 131.6 72.1004 131.364 71.6443C131.247 71.3942 131.173 71.0705 131.173 70.6732ZM142.306 65.8033C141.909 65.5532 141.408 65.4355 140.82 65.4355C139.76 65.4355 138.951 65.8475 138.377 66.6567C137.804 67.4806 137.509 68.4516 137.509 69.5845C137.509 70.7762 137.833 71.7325 138.451 72.4535C139.084 73.1744 139.834 73.5422 140.687 73.5422C141.217 73.5422 141.688 73.4245 142.1 73.2185C142.512 73.0125 142.865 72.6594 143.174 72.1886V73.2627H144.336V62.6695H143.086V66.5537C142.791 66.2006 142.541 65.9505 142.306 65.8033ZM139.407 71.5707C139.054 71.0263 138.878 70.3348 138.878 69.5109C138.878 68.5399 139.084 67.8043 139.496 67.304C139.893 66.8185 140.423 66.5537 141.07 66.5537C141.658 66.5537 142.144 66.7891 142.541 67.2599C142.938 67.7307 143.144 68.4516 143.144 69.4227C143.144 70.379 142.938 71.1146 142.571 71.6296C142.173 72.1445 141.688 72.4093 141.085 72.4093C140.32 72.4093 139.76 72.1298 139.407 71.5707ZM147.553 64.1702V62.7137H146.229V64.1702H147.553ZM147.553 73.2627V65.5974H146.229V73.2627H147.553ZM155.111 66.333C154.434 65.6709 153.595 65.3472 152.595 65.3472C151.492 65.3472 150.609 65.7298 149.961 66.4948C149.299 67.2599 148.976 68.2898 148.976 69.5845C148.976 70.7909 149.285 71.7473 149.903 72.4682C150.535 73.1891 151.374 73.5422 152.433 73.5422C153.698 73.5422 154.64 73.145 155.243 72.3358C155.846 71.5119 156.141 70.4967 156.141 69.2608C156.141 67.9661 155.802 66.9951 155.111 66.333ZM154.316 71.453C153.993 72.1004 153.404 72.424 152.551 72.424C151.771 72.424 151.197 72.1592 150.844 71.6148C150.476 71.0705 150.3 70.379 150.3 69.5698C150.3 68.7017 150.476 67.9808 150.844 67.3776C151.197 66.7744 151.771 66.4801 152.566 66.4801C153.448 66.4801 154.081 66.8332 154.449 67.5394C154.684 67.9955 154.787 68.5693 154.787 69.2902C154.787 70.0847 154.64 70.8056 154.316 71.453Z" fill="white"/>
<path d="M6.17893 40.8232C8.92475 40.8232 11.1507 38.5873 11.1507 35.8291C11.1507 33.0709 8.92475 30.835 6.17893 30.835C3.43312 30.835 1.20721 33.0709 1.20721 35.8291C1.20721 38.5873 3.43312 40.8232 6.17893 40.8232Z" fill="white"/>
</svg>
